REM DIRINDEX 1\8,1\2\11,1\3\12,1\3\14,1\5\15,1\5\16,1\6\17,1\6\18,1\4\19,1\4\20,1\4\21,1\4\22,1\7\23,1\7\24,1\7\25,1\2\9\26,1\2\9\27,1\2\10\28,1\2\10\29,1\2\10\30,1\2\10\31,1\2\10\32,1\3\13\33,1\3\13\34,1\3\13\35
REM DIRNAME cjc123,folder01,folder02,folder03,folder04,folder05,folder06,folder07,folder08,folder09,folder10,folder11,folder12,folder13,folder14,folder15,folder16,folder17,folder18,folder19,folder20,folder21,folder22,folder23,folder24,folder25,folder26,folder27,folder28,folder29,folder30,folder31,folder32,folder33,folder34
TITLE ""
FILE "142 142_—á•¶UNIT4_SET2.mp3" MP3
  TRACK 01 AUDIO
    TITLE "22:cjc123_3509"
    INDEX 01 00:00:00
  TRACK 02 AUDIO
    TITLE "0:"
    INDEX 01 00:02:53
  TRACK 03 AUDIO
    TITLE "19:cjc123_3510"
    INDEX 01 00:03:33
  TRACK 04 AUDIO
    TITLE "0:"
    INDEX 01 00:08:62
  TRACK 05 AUDIO
    TITLE "20:cjc123_3511"
    INDEX 01 00:09:24
  TRACK 06 AUDIO
    TITLE "0:"
    INDEX 01 00:14:31
  TRACK 07 AUDIO
    TITLE "21:cjc123_3512"
    INDEX 01 00:14:62
  TRACK 08 AUDIO
    TITLE "0:"
    INDEX 01 00:20:18
  TRACK 09 AUDIO
    TITLE "19:cjc123_3513"
    INDEX 01 00:20:67
  TRACK 10 AUDIO
    TITLE "0:"
    INDEX 01 00:26:44
  TRACK 11 AUDIO
    TITLE "20:cjc123_3514"
    INDEX 01 00:27:10
  TRACK 12 AUDIO
    TITLE "0:"
    INDEX 01 00:33:42
  TRACK 13 AUDIO
    TITLE "21:cjc123_3515"
    INDEX 01 00:33:71
  TRACK 14 AUDIO
    TITLE "0:"
    INDEX 01 00:39:47
  TRACK 15 AUDIO
    TITLE "19:cjc123_3516"
    INDEX 01 00:40:34
  TRACK 16 AUDIO
    TITLE "0:"
    INDEX 01 00:44:36
  TRACK 17 AUDIO
    TITLE "20:cjc123_3517"
    INDEX 01 00:45:00
  TRACK 18 AUDIO
    TITLE "0:"
    INDEX 01 00:49:53
  TRACK 19 AUDIO
    TITLE "21:cjc123_3518"
    INDEX 01 00:50:05
  TRACK 20 AUDIO
    TITLE "0:"
    INDEX 01 00:54:07
  TRACK 21 AUDIO
    TITLE "19:cjc123_3519"
    INDEX 01 00:54:66
  TRACK 22 AUDIO
    TITLE "0:"
    INDEX 01 00:59:12
  TRACK 23 AUDIO
    TITLE "20:cjc123_3520"
    INDEX 01 00:59:45
  TRACK 24 AUDIO
    TITLE "0:"
    INDEX 01 01:03:49
  TRACK 25 AUDIO
    TITLE "21:cjc123_3521"
    INDEX 01 01:04:01
  TRACK 26 AUDIO
    TITLE "0:"
    INDEX 01 01:08:23
  TRACK 27 AUDIO
    TITLE "19:cjc123_3522"
    INDEX 01 01:08:72
  TRACK 28 AUDIO
    TITLE "0:"
    INDEX 01 01:12:23
  TRACK 29 AUDIO
    TITLE "20:cjc123_3523"
    INDEX 01 01:12:54
  TRACK 30 AUDIO
    TITLE "0:"
    INDEX 01 01:16:05
  TRACK 31 AUDIO
    TITLE "21:cjc123_3524"
    INDEX 01 01:16:38
  TRACK 32 AUDIO
    TITLE "0:"
    INDEX 01 01:19:62
  TRACK 33 AUDIO
    TITLE "19:cjc123_3525"
    INDEX 01 01:20:38
  TRACK 34 AUDIO
    TITLE "0:"
    INDEX 01 01:25:70
  TRACK 35 AUDIO
    TITLE "20:cjc123_3526"
    INDEX 01 01:26:34
  TRACK 36 AUDIO
    TITLE "0:"
    INDEX 01 01:31:71
  TRACK 37 AUDIO
    TITLE "21:cjc123_3527"
    INDEX 01 01:32:37
  TRACK 38 AUDIO
    TITLE "0:"
    INDEX 01 01:37:69
  TRACK 39 AUDIO
    TITLE "19:cjc123_3528"
    INDEX 01 01:38:59
  TRACK 40 AUDIO
    TITLE "0:"
    INDEX 01 01:45:40
  TRACK 41 AUDIO
    TITLE "20:cjc123_3529"
    INDEX 01 01:45:69
  TRACK 42 AUDIO
    TITLE "0:"
    INDEX 01 01:51:48
  TRACK 43 AUDIO
    TITLE "21:cjc123_3530"
    INDEX 01 01:51:68
  TRACK 44 AUDIO
    TITLE "0:"
    INDEX 01 01:58:50
  TRACK 45 AUDIO
    TITLE "19:cjc123_3531"
    INDEX 01 01:59:38
  TRACK 46 AUDIO
    TITLE "0:"
    INDEX 01 02:04:51
  TRACK 47 AUDIO
    TITLE "20:cjc123_3532"
    INDEX 01 02:05:09
  TRACK 48 AUDIO
    TITLE "0:"
    INDEX 01 02:10:51
  TRACK 49 AUDIO
    TITLE "21:cjc123_3533"
    INDEX 01 02:11:08
  TRACK 50 AUDIO
    TITLE "0:"
    INDEX 01 02:16:23
  TRACK 51 AUDIO
    TITLE "19:cjc123_3534"
    INDEX 01 02:16:73
  TRACK 52 AUDIO
    TITLE "0:"
    INDEX 01 02:21:26
  TRACK 53 AUDIO
    TITLE "20:cjc123_3535"
    INDEX 01 02:21:61
  TRACK 54 AUDIO
    TITLE "0:"
    INDEX 01 02:26:56
  TRACK 55 AUDIO
    TITLE "21:cjc123_3536"
    INDEX 01 02:27:18
  TRACK 56 AUDIO
    TITLE "0:"
    INDEX 01 02:31:48
  TRACK 57 AUDIO
    TITLE "19:cjc123_3537"
    INDEX 01 02:32:22
  TRACK 58 AUDIO
    TITLE "0:"
    INDEX 01 02:37:62
  TRACK 59 AUDIO
    TITLE "20:cjc123_3538"
    INDEX 01 02:38:36
  TRACK 60 AUDIO
    TITLE "0:"
    INDEX 01 02:44:64
  TRACK 61 AUDIO
    TITLE "21:cjc123_3539"
    INDEX 01 02:45:20
  TRACK 62 AUDIO
    TITLE "0:"
    INDEX 01 02:50:57
  TRACK 63 AUDIO
    TITLE "19:cjc123_3540"
    INDEX 01 02:51:72
  TRACK 64 AUDIO
    TITLE "0:"
    INDEX 01 02:57:53
  TRACK 65 AUDIO
    TITLE "20:cjc123_3541"
    INDEX 01 02:58:15
  TRACK 66 AUDIO
    TITLE "0:"
    INDEX 01 03:02:66
  TRACK 67 AUDIO
    TITLE "21:cjc123_3542"
    INDEX 01 03:03:28
  TRACK 68 AUDIO
    TITLE "0:"
    INDEX 01 03:09:11
  TRACK 69 AUDIO
    TITLE "19:cjc123_3543"
    INDEX 01 03:09:62
  TRACK 70 AUDIO
    TITLE "0:"
    INDEX 01 03:14:28
  TRACK 71 AUDIO
    TITLE "20:cjc123_3544"
    INDEX 01 03:14:67
  TRACK 72 AUDIO
    TITLE "0:"
    INDEX 01 03:18:35
  TRACK 73 AUDIO
    TITLE "21:cjc123_3545"
    INDEX 01 03:18:69
  TRACK 74 AUDIO
    TITLE "0:"
    INDEX 01 03:23:37
  TRACK 75 AUDIO
    TITLE "19:cjc123_3546"
    INDEX 01 03:24:09
  TRACK 76 AUDIO
    TITLE "0:"
    INDEX 01 03:28:73
  TRACK 77 AUDIO
    TITLE "20:cjc123_3547"
    INDEX 01 03:29:29
  TRACK 78 AUDIO
    TITLE "0:"
    INDEX 01 03:34:27
  TRACK 79 AUDIO
    TITLE "21:cjc123_3548"
    INDEX 01 03:34:54
  TRACK 80 AUDIO
    TITLE "0:"
    INDEX 01 03:39:41
  TRACK 81 AUDIO
    TITLE "19:cjc123_3549"
    INDEX 01 03:40:13
  TRACK 82 AUDIO
    TITLE "0:"
    INDEX 01 03:43:59
  TRACK 83 AUDIO
    TITLE "20:cjc123_3550"
    INDEX 01 03:44:17
  TRACK 84 AUDIO
    TITLE "0:"
    INDEX 01 03:48:09
  TRACK 85 AUDIO
    TITLE "21:cjc123_3551"
    INDEX 01 03:48:38
  TRACK 86 AUDIO
    TITLE "0:"
    INDEX 01 03:52:09
  TRACK 87 AUDIO
    TITLE "19:cjc123_3552"
    INDEX 01 03:52:66
  TRACK 88 AUDIO
    TITLE "0:"
    INDEX 01 03:57:10
  TRACK 89 AUDIO
    TITLE "20:cjc123_3553"
    INDEX 01 03:57:41
  TRACK 90 AUDIO
    TITLE "0:"
    INDEX 01 04:02:03
  TRACK 91 AUDIO
    TITLE "21:cjc123_3554"
    INDEX 01 04:02:29
  TRACK 92 AUDIO
    TITLE "0:"
    INDEX 01 04:06:50
